<svg width="24" height="24" xmlns="http://www.w3.org/2000/svg">
 <!-- Created with UXWing SVG Editor - https://uxwing.com/svg-icon-editor/ -->

 <g>
  <title>Layer 1</title>
 </g>
 <g>
  <title>background</title>
  <!-- Created with UXWing SVG Editor - https://uxwing.com/svg-icon-editor/ -->
  <!-- Created with UXWing SVG Editor - https://uxwing.com/svg-icon-editor/ -->
  <!-- Created with UXWing SVG Editor - https://uxwing.com/svg-icon-editor/ -->
  <g stroke="null" id="svg_68">
   <g stroke="null" transform="matrix(0.8902074195047781,0,0,0.8902074195047781,6.7998101431595614,6.835208719095142) " id="svg_65">
    <title stroke="null" transform="translate(-0.13868317008018494,0) translate(-0.14041577279567719,0) translate(0.14041577279567719,0) translate(0.14041577279567719,0) translate(0,-0.14041577279567719) translate(0.42124730348587036,0.14041577279567719) translate(1.8254050016403198,1.9658206701278687) translate(1.673399806022644,2.008079767227173) translate(-10.312585830688477,0) translate(0,-10.312585830688477) ">background</title>
    <rect stroke="null" x="-7.390801" y="-7.338685" width="26" height="26" id="svg_63" fill="none"/>
    <g stroke="null" id="svg_62" display="none">
     <rect stroke="null" id="svg_66" width="24" height="24" x="-6.390801" y="-6.338685" stroke-width="0" fill="url(#gridpattern)"/>
    </g>
   </g>
   <g stroke="null" transform="matrix(0.8902074195047781,0,0,0.8902074195047781,6.7998101431595614,6.835208719095142) " id="svg_67">
    <title stroke="null" transform="translate(-0.13868317008018494,0) translate(-0.14041577279567719,0) translate(0.14041577279567719,0) translate(0.14041577279567719,0) translate(0,-0.14041577279567719) translate(0.42124730348587036,0.14041577279567719) translate(1.8254050016403198,1.9658206701278687) translate(1.673399806022644,2.008079767227173) translate(-10.312585830688477,0) translate(0,-10.312585830688477) ">Layer 1</title>
    <style stroke="null" transform="translate(-0.13868317008018494,0) translate(-0.14041577279567719,0) translate(0.14041577279567719,0) translate(0.14041577279567719,0) translate(0,-0.14041577279567719) translate(0.42124730348587036,0.14041577279567719) translate(1.8254050016403198,1.9658206701278687) translate(1.673399806022644,2.008079767227173) translate(-10.312585830688477,0) translate(0,-10.312585830688477) " type="text/css">
     <![CDATA[
	.st0{fill-rule:evenodd;clip-rule:evenodd;}
]]>
    </style>
    <g stroke="null" id="svg_59">
     <g stroke="null" id="svg_60" transform="matrix(0.1938360551398073,0,0,0.1938360551398073,7.415778436916446,0.3219169791511721) ">
      <path stroke="null" class="st0" d="m-5.328185,88.292128c16.11,-2.33 30.4,-12.87 38.67,-26.18c-0.66,-0.1 -1.32,-0.29 -1.96,-0.56c-2.06,-0.9 -3.54,-2.58 -4.25,-4.54c-0.6,-1.4 -2.7,-3.02 -4.75,-4.61c-5.82,-4.5 -11.46,-8.88 -10.23,-19.03c0.26,-2.11 0.96,-4.28 2.01,-6.26l-7.61,-13.99c-0.44,-0.81 -0.72,-1.66 -0.86,-2.52c-0.09,-0.18 -0.18,-0.35 -0.25,-0.53c-2.18,1.21 -4.53,2.39 -7.17,3.22c-13.8,4.34 -23.2,-1.87 -12.36,-16.12c7.41,-9.74 -8.94,-18.56 -23.43,-8.72c-11.85,8.03 -22.08,25.66 -22.26,45.05c-0.25,28.06 24.34,59.14 54.45,54.79l0,0zm42.18,-36.04c-3.12,-8.28 -15.78,-10.09 -14.57,-20.07c0.32,-2.64 1.92,-5.5 4.25,-7.05c0.94,-0.62 1.99,-1.04 3.12,-1.14c0.5,-0.04 1.01,-0.04 1.54,0.03c6.55,0.84 9.4,7.69 9.36,13.63c-0.04,5.48 -2.12,10.95 -3.7,14.6l0,0l0,0zm-8.03,-51.51c-5.11,0.43 -9.74,1.77 -13.85,4.11l-6,-32.94c-0.6,-2.61 -0.64,-4.53 2.28,-5.96c1.13,-0.24 2.1,-0.14 2.89,0.32c0.78,0.45 1.39,1.24 1.82,2.39l12.86,32.08l0,0l0,0zm1.99,19.05c-1.93,-0.19 -5.13,0.39 -6.96,2.13l-7.93,-14.57c4.44,-2.52 9.03,-4.14 13.89,-4.22c0.36,6.97 0,9.6 1,16.66l0,0l0,0zm-74.72,1.42c2.58,3.25 7.31,3.8 10.56,1.21s3.8,-7.31 1.21,-10.56c-2.58,-3.25 -7.3,-3.8 -10.56,-1.21c-3.25,2.57 -3.79,7.3 -1.21,10.56l0,0l0,0zm45.8,41.9c2.89,3.64 8.2,4.25 11.85,1.36c3.66,-2.9 4.27,-8.21 1.38,-11.86c-6.9,-8.68 -20.13,1.8 -13.23,10.5l0,0l0,0zm-28.09,8.42c3.53,4.45 10,5.19 14.45,1.66c4.45,-3.53 5.19,-10 1.66,-14.45c-3.53,-4.45 -10,-5.19 -14.45,-1.66s-5.19,10 -1.66,14.45l0,0l0,0zm-20.12,-22.48c3.05,3.85 8.66,4.49 12.51,1.44c3.85,-3.05 4.5,-8.65 1.44,-12.51c-3.05,-3.85 -8.66,-4.49 -12.51,-1.44c-3.85,3.06 -4.49,8.66 -1.44,12.51l0,0l0,0z" id="svg_61" fill="#4b4c4d"/>
     </g>
    </g>
   </g>
  </g>
 </g>
</svg>