<svg width="24" height="24" xmlns="http://www.w3.org/2000/svg">
 <!-- Created with UXWing SVG Editor - https://uxwing.com/svg-icon-editor/ -->

 <g>
  <title>Layer 1</title>
 </g>
 <g>
  <title>background</title>
  <!-- Created with UXWing SVG Editor - https://uxwing.com/svg-icon-editor/ -->
  <!-- Created with UXWing SVG Editor - https://uxwing.com/svg-icon-editor/ -->
  <g stroke="null" id="svg_51">
   <g stroke="null" transform="matrix(0.8275910655089532,0,0,0.8275910655089532,24.299719969839252,14.442263767869909) " id="svg_48">
    <title stroke="null" transform="translate(-0.15103694796562195,0) translate(0,-0.15103694796562195) translate(0,0.15103694796562195) translate(0.15103694796562195,0) translate(0.15103694796562195,0) translate(-0.15103694796562195,0) translate(-0.15103694796562195,0) translate(-0.15103694796562195,0) translate(-0.15103694796562195,0) translate(0.45311081409454346,0) translate(0.15103693306446075,0) translate(0.15103693306446075,0.3020738661289215) translate(-2.236287832260132,-1.89224374294281) translate(0.17202214896678925,0.3440442979335785) translate(0,-0.5160664319992065) translate(-2.62134051322937,-260.8233642578125) translate(-5.898017406463623,5.898017406463623) translate(-3.932011365890503,247.7167205810547) translate(-44.14306640625,-32.65869140625) translate(14.71435546875,16.86767578125) translate(16.799758911132812,0) translate(0,9.59981918334961) ">background</title>
    <rect stroke="null" x="-27.842513" y="-16.162015" width="26" height="26" id="svg_46" fill="none"/>
    <g stroke="null" id="svg_45" display="none">
     <rect stroke="null" id="svg_49" width="640" height="480" x="-26.842513" y="-15.162015" stroke-width="0" fill="url(#gridpattern)"/>
    </g>
   </g>
   <g stroke="null" transform="matrix(0.8275910655089532,0,0,0.8275910655089532,24.299719969839252,14.442263767869909) " id="svg_50">
    <title fill="#4b4c4d" stroke="null" transform="translate(-0.15103694796562195,0) translate(0,-0.15103694796562195) translate(0,0.15103694796562195) translate(0.15103694796562195,0) translate(0.15103694796562195,0) translate(-0.15103694796562195,0) translate(-0.15103694796562195,0) translate(-0.15103694796562195,0) translate(-0.15103694796562195,0) translate(0.45311081409454346,0) translate(0.15103693306446075,0) translate(0.15103693306446075,0.3020738661289215) translate(-2.236287832260132,-1.89224374294281) translate(0.17202214896678925,0.3440442979335785) translate(0,-0.5160664319992065) translate(-2.62134051322937,-260.8233642578125) translate(-5.898017406463623,5.898017406463623) translate(-3.932011365890503,247.7167205810547) translate(-44.14306640625,-32.65869140625) translate(14.71435546875,16.86767578125) translate(16.799758911132812,0) translate(0,9.59981918334961) ">Layer 1</title>
    <style fill="#4b4c4d" stroke="null" transform="translate(-0.15103694796562195,0) translate(0,-0.15103694796562195) translate(0,0.15103694796562195) translate(0.15103694796562195,0) translate(0.15103694796562195,0) translate(-0.15103694796562195,0) translate(-0.15103694796562195,0) translate(-0.15103694796562195,0) translate(-0.15103694796562195,0) translate(0.45311081409454346,0) translate(0.15103693306446075,0) translate(0.15103693306446075,0.3020738661289215) translate(-2.236287832260132,-1.89224374294281) translate(0.17202214896678925,0.3440442979335785) translate(0,-0.5160664319992065) translate(-2.62134051322937,-260.8233642578125) translate(-5.898017406463623,5.898017406463623) translate(-3.932011365890503,247.7167205810547) translate(-44.14306640625,-32.65869140625) translate(14.71435546875,16.86767578125) translate(16.799758911132812,0) translate(0,9.59981918334961) " type="text/css">
     <![CDATA[
	.st0{fill-rule:evenodd;clip-rule:evenodd;}
]]>
    </style>
    <g stroke="null" id="svg_42">
     <g stroke="null" id="svg_43" transform="matrix(0.18757253940466864,0,0,0.18757253940466864,9.907402783478847,9.906490475100258) ">
      <path stroke="null" d="m-114.733694,-22.623868c-0.381,2.005 -1.053,3.845 -2.021,5.521c-1,1.729 -2.309,3.279 -3.926,4.648c-1.617,1.367 -3.381,2.397 -5.283,3.086c-1.906,0.689 -3.934,1.035 -6.076,1.035c-2.143,0 -4.17,-0.346 -6.077,-1.035c-1.903,-0.688 -3.665,-1.719 -5.282,-3.086c-1.618,-1.369 -2.927,-2.92 -3.927,-4.648c-0.998,-1.728 -1.682,-3.63 -2.054,-5.706c-0.181,-1.015 0.495,-1.987 1.51,-2.169c0.032,-0.005 0.329,-0.034 0.329,-0.036l31.001,0c1.037,0 1.877,0.84 1.877,1.875c-0.001,0.179 -0.024,0.351 -0.071,0.515l0,0zm-7.43,-101.721c1.521,0.397 2.998,0.879 4.43,1.444c2.109,0.832 4.135,1.836 6.076,3.007c0.076,0.047 0.15,0.097 0.223,0.148c1.861,1.144 3.592,2.401 5.189,3.772c1.67,1.434 3.227,3.019 4.67,4.754l0.012,0.013l0.002,0c1.41,1.708 2.672,3.531 3.787,5.462c1.119,1.941 2.076,3.962 2.867,6.056l0.004,-0.001c0.818,2.154 1.43,4.362 1.834,6.622c0.406,2.271 0.607,4.599 0.607,6.984c0,4.714 0,7.257 0.002,7.566c0.01,2.417 0.023,4.779 0.041,7.085l0,0.024l0,0c0.008,2.083 0.145,4.179 0.404,6.279c0.256,2.077 0.631,4.083 1.115,6.014l0.004,-0.001c0.486,1.904 1.143,3.735 1.967,5.493c0.846,1.81 1.875,3.58 3.086,5.311l0.006,-0.004c1.195,1.697 2.691,3.373 4.488,5.027c1.855,1.709 4.01,3.383 6.461,5.023c1.406,0.942 1.783,2.846 0.84,4.253c-0.59,0.881 -1.559,1.358 -2.547,1.359l0,0.01l-27.722,0l-27.722,0l-27.724,0l-27.722,0c-1.699,0 -3.076,-1.377 -3.076,-3.075c0,-1.117 0.595,-2.094 1.485,-2.633c2.491,-1.686 4.63,-3.354 6.416,-5.008c1.777,-1.646 3.265,-3.33 4.462,-5.055c0.036,-0.051 0.072,-0.1 0.11,-0.148c1.157,-1.694 2.147,-3.42 2.967,-5.173c0.834,-1.783 1.503,-3.622 2.004,-5.517c0.01,-0.04 0.021,-0.079 0.033,-0.118c0.475,-1.84 0.837,-3.779 1.088,-5.812c0.252,-2.047 0.378,-4.161 0.378,-6.337l0,-14.563c0,-2.34 0.21,-4.671 0.629,-6.987c0.419,-2.313 1.036,-4.534 1.849,-6.655c0.809,-2.121 1.779,-4.154 2.905,-6.096c1.119,-1.929 2.397,-3.763 3.828,-5.496l0.017,-0.02l-0.004,-0.004c1.428,-1.707 2.995,-3.292 4.701,-4.749c1.683,-1.437 3.5,-2.743 5.45,-3.914c1.975,-1.179 4.015,-2.169 6.128,-2.971c1.469,-0.558 2.979,-1.026 4.529,-1.405c0.529,-1.851 1.437,-3.349 2.722,-4.496c1.774,-1.584 4.113,-2.361 7.015,-2.336c2.875,0.025 5.194,0.821 6.952,2.391c1.289,1.151 2.201,2.643 2.734,4.477l0,0zm2.196,7.162c-1.701,-0.67 -3.436,-1.198 -5.203,-1.577c-1.361,-0.176 -2.482,-1.253 -2.656,-2.677c-0.166,-1.341 -0.551,-2.281 -1.154,-2.819c-0.605,-0.541 -1.578,-0.817 -2.917,-0.829c-1.33,-0.012 -2.291,0.246 -2.882,0.774c-0.6,0.536 -0.98,1.485 -1.14,2.85l-0.003,0c-0.148,1.303 -1.127,2.414 -2.484,2.667c-1.915,0.363 -3.762,0.883 -5.547,1.561c-1.782,0.676 -3.495,1.507 -5.143,2.49c-1.641,0.985 -3.177,2.091 -4.609,3.313c-1.43,1.221 -2.757,2.566 -3.98,4.028l-0.004,-0.003c-1.194,1.449 -2.274,3.003 -3.234,4.659c-0.945,1.629 -1.771,3.366 -2.473,5.207c-0.702,1.83 -1.222,3.682 -1.56,5.55c-0.34,1.874 -0.509,3.844 -0.509,5.906l0,14.564c0,2.412 -0.143,4.774 -0.427,7.083c-0.274,2.224 -0.693,4.428 -1.256,6.605c-0.01,0.047 -0.021,0.095 -0.033,0.142c-0.587,2.219 -1.384,4.402 -2.389,6.549c-0.97,2.073 -2.125,4.089 -3.461,6.046c-0.038,0.064 -0.078,0.127 -0.121,0.189c-1.408,2.026 -3.192,4.039 -5.352,6.039l-0.078,0.071l18.819,0l27.724,0l27.722,0l18.787,0c-2.111,-1.946 -3.887,-3.942 -5.328,-5.989l0.004,-0.004l-0.004,-0.008c-1.416,-2.024 -2.625,-4.102 -3.621,-6.231c-1.018,-2.172 -1.809,-4.364 -2.375,-6.575l0.002,-0.001l-0.002,-0.011c-0.555,-2.202 -0.979,-4.461 -1.264,-6.771c-0.271,-2.209 -0.416,-4.54 -0.428,-6.992l0,-0.007c-0.018,-2.278 -0.031,-4.656 -0.041,-7.133c-0.018,-4.584 -0.025,-7.086 -0.025,-7.566c0,-2.024 -0.17,-3.992 -0.512,-5.902c-0.34,-1.903 -0.848,-3.743 -1.521,-5.517l0.004,-0.001l-0.004,-0.011c-0.691,-1.829 -1.504,-3.557 -2.439,-5.178c-0.934,-1.617 -2.004,-3.159 -3.211,-4.622l0.002,-0.001c-1.197,-1.438 -2.51,-2.77 -3.939,-3.997c-1.385,-1.188 -2.848,-2.256 -4.393,-3.207c-0.068,-0.035 -0.137,-0.072 -0.203,-0.113c-1.667,-1.004 -3.379,-1.857 -5.139,-2.551l0,0z" id="svg_44" fill="#4b4c4d"/>
     </g>
    </g>
   </g>
  </g>
 </g>
</svg>